<?xml version="1.0" standalone="no"?>
<!DOCTYPE svg PUBLIC "-//W3C//DTD SVG 20010904//EN"
 "http://www.w3.org/TR/2001/REC-SVG-20010904/DTD/svg10.dtd">
<svg version="1.0" xmlns="http://www.w3.org/2000/svg"
 width="152.000000pt" height="152.000000pt" viewBox="0 0 152.000000 152.000000"
 preserveAspectRatio="xMidYMid meet">

<g transform="translate(0.000000,152.000000) scale(0.100000,-0.100000)"
fill="#000000" stroke="none">
<path d="M800 1101 c0 -6 15 -11 32 -13 55 -5 59 -24 56 -290 -2 -163 -7 -241
-15 -249 -6 -6 -26 -15 -45 -19 -21 -5 12 -8 97 -8 72 1 119 3 105 5 -54 10
-60 25 -60 162 l0 126 120 -121 c125 -126 135 -145 86 -164 -13 -5 34 -9 124
-9 l145 0 -55 21 c-45 17 -80 45 -198 162 l-143 140 93 94 c95 97 168 152 200
152 10 0 18 5 18 10 0 6 -42 10 -105 10 -58 0 -105 -4 -105 -9 0 -5 10 -11 22
-13 49 -7 32 -38 -84 -152 l-113 -111 -3 120 c-3 130 3 145 55 145 13 0 23 5
23 10 0 6 -48 10 -125 10 -71 0 -125 -4 -125 -9z"/>
<path d="M120 280 c0 -44 3 -80 8 -80 4 0 6 20 4 44 -7 82 2 85 37 16 l34 -65
31 63 c16 34 34 62 39 62 5 0 7 -27 5 -60 -3 -45 -1 -60 9 -60 10 0 13 21 13
81 0 97 -11 100 -55 16 -16 -31 -33 -57 -36 -57 -3 0 -18 27 -34 60 -40 85
-55 79 -55 -20z"/>
<path d="M485 280 c0 -47 4 -80 10 -80 6 0 9 21 8 47 -1 27 -2 63 -2 81 -1 17
-4 32 -8 32 -5 0 -8 -36 -8 -80z"/>
<path d="M938 331 c4 -26 2 -29 -17 -24 -29 7 -61 -23 -61 -58 0 -32 34 -61
59 -51 13 6 12 7 -6 10 -43 6 -45 87 -3 87 23 0 25 -4 28 -47 2 -29 8 -48 15
-48 9 0 11 23 9 80 -3 56 -7 80 -16 80 -8 0 -11 -10 -8 -29z"/>
<path d="M1010 349 c0 -5 5 -7 10 -4 6 3 10 8 10 11 0 2 -4 4 -10 4 -5 0 -10
-5 -10 -11z"/>
<path d="M1185 280 c0 -47 4 -80 10 -80 6 0 10 33 10 80 0 47 -4 80 -10 80 -6
0 -10 -33 -10 -80z"/>
<path d="M1260 350 c0 -5 5 -10 10 -10 6 0 10 5 10 10 0 6 -4 10 -10 10 -5 0
-10 -4 -10 -10z"/>
<path d="M1325 280 c0 -57 4 -80 13 -80 6 0 12 12 12 28 l1 27 24 -27 c13 -16
30 -28 36 -28 7 0 0 14 -17 31 l-29 31 23 18 c12 10 22 22 22 26 0 4 -13 -5
-30 -21 l-30 -29 0 52 c0 35 -4 52 -12 52 -9 0 -13 -23 -13 -80z"/>
<path d="M360 330 c0 -5 5 -10 10 -10 6 0 10 5 10 10 0 6 -4 10 -10 10 -5 0
-10 -4 -10 -10z"/>
<path d="M410 330 c0 -5 5 -10 10 -10 6 0 10 5 10 10 0 6 -4 10 -10 10 -5 0
-10 -4 -10 -10z"/>
<path d="M524 299 c-4 -7 -3 -9 3 -6 18 11 35 -21 31 -58 -2 -21 0 -35 7 -35
7 0 9 18 5 52 -4 39 -10 54 -22 56 -9 2 -20 -2 -24 -9z"/>
<path d="M626 294 c-23 -23 -20 -70 5 -88 23 -16 60 -9 67 13 3 9 -1 9 -18 -1
-19 -12 -23 -10 -41 11 -23 28 -22 49 4 65 15 9 21 7 32 -8 8 -11 18 -17 21
-13 10 10 -16 37 -37 37 -9 0 -25 -7 -33 -16z"/>
<path d="M730 299 c-12 -7 -12 -9 -1 -9 9 0 12 -12 9 -45 -2 -31 1 -45 9 -45
9 0 13 16 13 49 0 53 -7 65 -30 50z"/>
<path d="M774 298 c-4 -6 -3 -8 3 -5 18 11 35 -21 31 -58 -3 -24 0 -35 9 -35
16 0 18 63 3 91 -12 21 -35 25 -46 7z"/>
<path d="M1009 308 c0 -2 -1 -27 -2 -56 -1 -36 2 -52 11 -52 8 0 12 18 12 55
0 30 -4 55 -10 55 -5 0 -10 -1 -11 -2z"/>
<path d="M1110 297 c14 -8 27 -12 30 -10 7 6 -23 23 -40 23 -8 0 -4 -6 10 -13z"/>
<path d="M1265 302 c-15 -11 -13 -102 3 -102 8 0 12 18 12 55 0 30 -1 55 -2
55 -2 0 -7 -4 -13 -8z"/>
<path d="M350 255 c0 -48 22 -72 51 -54 11 7 9 9 -8 9 -20 0 -23 5 -23 45 0
25 -4 45 -10 45 -5 0 -10 -20 -10 -45z"/>
<path d="M420 250 c0 -33 4 -50 13 -50 8 0 11 15 9 50 -5 65 -22 65 -22 0z"/>
<path d="M1070 280 c0 -12 13 -26 31 -35 19 -11 29 -22 25 -31 -3 -8 -1 -14 3
-14 17 0 20 30 5 42 -9 7 -27 23 -40 35 -23 21 -24 21 -24 3z"/>
<path d="M1070 210 c0 -5 5 -10 11 -10 5 0 7 5 4 10 -3 6 -8 10 -11 10 -2 0
-4 -4 -4 -10z"/>
</g>
</svg>
